<svg width="16" height="16" viewBox="0 0 16 16" fill="none" xmlns="http://www.w3.org/2000/svg">
<path d="M9.46937 13.5319L4.46937 8.5319C4.39969 8.46222 4.34424 8.37943 4.30649 8.28827C4.26873 8.1971 4.2493 8.09936 4.2493 8.00065C4.2493 7.90194 4.26873 7.8042 4.30649 7.71304C4.34424 7.62187 4.39969 7.53908 4.46937 7.4694L9.46937 2.4694C9.61027 2.32851 9.80137 2.24935 10.0006 2.24935C10.1999 2.24935 10.391 2.32851 10.5319 2.4694C10.6728 2.6103 10.7519 2.8014 10.7519 3.00065C10.7519 3.19991 10.6728 3.391 10.5319 3.5319L6.06254 8.00065L10.5325 12.4694C10.6734 12.6103 10.7526 12.8014 10.7526 13.0007C10.7526 13.1999 10.6734 13.391 10.5325 13.5319C10.3916 13.6728 10.2005 13.752 10.0013 13.752C9.80202 13.752 9.61093 13.6728 9.47003 13.5319L9.46937 13.5319Z" fill="black" fill-opacity="0.6"/>
</svg>
