<svg width="20" height="19" viewBox="0 0 20 19" fill="none" xmlns="http://www.w3.org/2000/svg">
<path d="M4.4694 11.0335L9.4694 6.03354C9.53908 5.96362 9.62187 5.90815 9.71304 5.87029C9.8042 5.83244 9.90194 5.81295 10.0007 5.81295C10.0994 5.81295 10.1971 5.83244 10.2883 5.87029C10.3794 5.90815 10.4622 5.96362 10.5319 6.03354L15.5319 11.0335C15.6728 11.1744 15.752 11.3655 15.752 11.5648C15.752 11.7641 15.6728 11.9551 15.5319 12.096C15.391 12.2369 15.1999 12.3161 15.0007 12.3161C14.8014 12.3161 14.6103 12.2369 14.4694 12.096L10 7.62667L5.53065 12.0967C5.38976 12.2376 5.19866 12.3167 4.9994 12.3167C4.80015 12.3167 4.60905 12.2376 4.46815 12.0967C4.32726 11.9558 4.2481 11.7647 4.2481 11.5654C4.2481 11.3662 4.32726 11.1751 4.46815 11.0342L4.4694 11.0335Z" fill="black"/>
</svg>
