<svg width="114" height="19" viewBox="0 0 114 19" fill="none" xmlns="http://www.w3.org/2000/svg">
<path d="M9.24494 0L11.8641 5.63991L18.0374 6.38809L13.4829 10.6219L14.679 16.7243L9.24494 13.701L3.8109 16.7243L5.00697 10.6219L0.452479 6.38809L6.62573 5.63991L9.24494 0Z" fill="#FFC633"/>
<path d="M33.0467 0L35.6659 5.63991L41.8392 6.38809L37.2847 10.6219L38.4807 16.7243L33.0467 13.701L27.6127 16.7243L28.8087 10.6219L24.2542 6.38809L30.4275 5.63991L33.0467 0Z" fill="#FFC633"/>
<path d="M56.8489 0L59.4681 5.63991L65.6414 6.38809L61.0869 10.6219L62.283 16.7243L56.8489 13.701L51.4149 16.7243L52.611 10.6219L48.0565 6.38809L54.2297 5.63991L56.8489 0Z" fill="#FFC633"/>
<path d="M80.6507 0L83.2699 5.63991L89.4432 6.38809L84.8887 10.6219L86.0847 16.7243L80.6507 13.701L75.2167 16.7243L76.4127 10.6219L71.8582 6.38809L78.0315 5.63991L80.6507 0Z" fill="#FFC633"/>
<path d="M104.452 0L107.072 5.63991L113.245 6.38809L108.69 10.6219L109.886 16.7243L104.452 13.701L99.0184 16.7243L100.214 10.6219L95.66 6.38809L101.833 5.63991L104.452 0Z" fill="#FFC633"/>
</svg>
