<svg width="81" height="19" viewBox="0 0 81 19" fill="none" xmlns="http://www.w3.org/2000/svg">
<path d="M9.24494 0L11.8641 5.63991L18.0374 6.38809L13.4829 10.6219L14.679 16.7243L9.24494 13.701L3.8109 16.7243L5.00697 10.6219L0.452479 6.38809L6.62573 5.63991L9.24494 0Z" fill="#FFC633"/>
<path d="M33.0467 0L35.6659 5.63991L41.8392 6.38809L37.2847 10.6219L38.4807 16.7243L33.0467 13.701L27.6127 16.7243L28.8087 10.6219L24.2542 6.38809L30.4275 5.63991L33.0467 0Z" fill="#FFC633"/>
<path d="M56.8489 0L59.4681 5.63991L65.6414 6.38809L61.0869 10.6219L62.283 16.7243L56.8489 13.701L51.4149 16.7243L52.611 10.6219L48.0565 6.38809L54.2297 5.63991L56.8489 0Z" fill="#FFC633"/>
<path d="M74.7642 16.7243L80.1982 13.701V0L77.579 5.63991L71.4058 6.38809L75.9603 10.6219L74.7642 16.7243Z" fill="#FFC633"/>
</svg>
